# Blender 3.3.1
# www.blender.org
mtllib heart.mtl
o 12190_Heart_v1_L3
v -5.542455 5.628613 2.519061
v -8.434509 18.686052 0.915890
v -4.955322 11.090528 4.441145
v -4.818124 17.342607 3.644066
v -8.473339 16.168808 3.064560
v -8.874637 11.467903 2.989044
v -8.090529 6.744713 0.527013
v 0.053644 17.833506 1.081105
v -0.109383 9.318396 4.561621
v -1.284408 0.299439 0.308733
v -6.057979 19.813940 1.306543
v -10.155265 16.443419 -0.394979
v -10.332350 11.759356 1.516350
v -10.714347 13.500053 -0.415085
v -2.676179 19.579174 -0.227088
v -3.109485 19.401291 1.680577
v 3.882899 3.427764 1.812594
v 9.507701 16.169401 2.009438
v 6.829852 18.486963 2.634421
v 7.667286 14.653627 3.669812
v 2.829036 12.987155 4.536920
v 9.945066 13.046968 2.259378
v 4.039146 17.668310 3.513656
v 8.730778 9.118014 2.364573
v -0.156975 15.963189 3.555466
v 0.214805 4.456553 3.360897
v 5.811963 9.266278 3.902641
v 9.250077 17.987318 -0.130878
v 10.817805 12.693314 0.407935
v 3.349448 19.661497 1.329131
v -0.039731 1.208454 1.758709
v -6.896707 8.234866 -3.150326
v -2.319542 1.230073 -0.929295
v -8.944256 14.218446 -3.038501
v -5.678846 19.766672 -1.377067
v -7.248838 18.029442 -2.691979
v -5.122880 15.996140 -3.990075
v -3.367767 18.656481 -2.581518
v -9.896346 9.825189 -1.100826
v -0.000001 17.455742 -1.770001
v 0.182196 15.570064 -3.706684
v 1.993198 11.433119 -4.659898
v 0.377969 0.479620 -1.071267
v -4.125256 9.055362 -4.164433
v -7.656834 7.618620 -2.191552
v 4.936957 4.175912 -1.724374
v 8.213160 17.557003 -2.365052
v 5.037812 17.711782 -3.478538
v 7.294084 10.018373 -3.442856
v 10.176952 13.737212 -1.850814
v 9.518408 9.943439 -1.663881
v 2.396415 19.209408 -1.245177
v 6.407401 19.956638 -0.894814
v 8.041451 14.785912 -3.422333
v 8.546120 7.139517 0.051633
v 3.018620 6.997388 -3.794841
v 1.061018 0.128297 0.291868
v 0.523346 2.807236 -2.651945
vn -0.4672 -0.4981 0.7305
vn 0.0175 -0.3718 0.9281
vn -0.2024 -0.0844 0.9757
vn -0.0744 0.4381 0.8958
vn -0.5646 0.2987 0.7695
vn -0.8969 -0.1581 0.4130
vn -0.5726 -0.1783 0.8002
vn 0.2373 0.8479 0.4741
vn -0.2119 0.9025 0.3751
vn 0.0506 0.5337 0.8441
vn -0.0067 0.9509 0.3095
vn 0.0637 0.0840 0.9944
vn -0.0206 -0.6263 0.7793
vn -0.3635 -0.9136 0.1823
vn -0.0002 -0.1391 0.9903
vn -0.9075 0.4062 -0.1071
vn -0.9887 0.0479 -0.1417
vn 0.3363 0.9347 -0.1154
vn -0.7798 -0.6043 0.1638
vn 0.4936 -0.5964 0.6330
vn 0.6875 -0.3604 0.6304
vn 0.2954 -0.2247 0.9286
vn 0.7699 0.3544 0.5307
vn 0.3410 0.6643 0.6651
vn 0.3686 0.1209 0.9217
vn -0.0302 0.4915 0.8703
vn 0.8031 -0.5958 -0.0058
vn 0.9948 -0.0658 0.0783
vn 0.3341 -0.9313 0.1452
vn 0.7887 0.6143 -0.0223
vn 0.7528 -0.0344 0.6574
vn -0.2045 0.9188 0.3375
vn 0.2538 0.9426 -0.2169
vn -0.3389 0.8652 -0.3697
vn -0.4326 0.5663 -0.7015
vn -0.5951 0.0823 -0.7994
vn -0.4367 -0.3125 -0.8436
vn -0.8744 -0.3500 -0.3361
vn -0.1681 0.9078 -0.3842
vn 0.1715 0.7001 -0.6932
vn -0.1674 -0.1766 -0.9699
vn -0.1191 0.2481 -0.9614
vn 0.0144 0.4173 -0.9087
vn 0.0227 0.8577 -0.5137
vn 0.0586 -0.0066 -0.9983
vn 0.0950 -0.8028 -0.5886
vn -0.5005 -0.7225 -0.4769
vn -0.6511 0.7271 0.2178
vn 0.0423 -0.4627 -0.8855
vn 0.8453 0.0772 -0.5288
vn 0.4260 0.1202 -0.8967
vn 0.5610 0.4899 -0.6673
vn 0.0520 0.4977 -0.8658
vn 0.1732 -0.2901 -0.9412
vn 0.5521 -0.6131 -0.5651
vn 0.4230 -0.2243 -0.8779
vn 0.8037 -0.3391 -0.4889
vn -0.6493 -0.5173 -0.5575
vt 0.968022 0.286891
vt 0.644871 0.648014
vt 0.796500 0.005137
vt 0.046096 0.540617
vt 0.872980 0.177988
vt 0.743030 0.080668
vt 0.832063 0.033173
vt 0.008976 0.635354
vt 0.927919 0.108683
vt 0.635220 0.529132
vt 0.680541 0.623132
vt 0.240168 0.692896
vt 0.801508 0.585037
vt 0.797058 0.313537
vt 0.989265 0.463798
vt 0.693149 0.866436
vt 0.237611 0.528031
vt 0.740674 0.019191
vt 0.057314 0.505002
vt 0.076105 0.604632
vt 0.912277 0.053196
vt 0.665328 0.522366
vt 0.039650 0.719554
vt 0.078148 0.682909
vt 0.201059 0.613524
vt 0.703281 0.067008
vt 0.255065 0.599849
vt 0.609153 0.892311
vt 0.839370 0.488850
vt 0.412744 0.709402
vt 0.597555 0.512563
vt 0.514282 0.370354
vt 0.511819 0.295126
vt 0.427597 0.618506
vt 0.565839 0.359240
vt 0.679061 0.285604
vt 0.610460 0.567658
vt 0.563339 0.422396
vt 0.436512 0.553201
vt 0.573298 0.243741
vt 0.614132 0.671668
vt 0.674783 0.473993
vt 0.295609 0.697358
vt 0.675553 0.189345
vt 0.812754 0.624113
vt 0.885027 0.402354
vt 0.707316 0.419450
vt 0.368003 0.686457
vt 0.554769 0.498958
vt 0.561891 0.571316
vt 0.592240 0.192627
vt 0.772939 0.602534
vt 0.402006 0.533601
vt 0.666105 0.854839
vt 0.959802 0.456667
vt 0.965299 0.462721
vt 0.752083 0.712588
vt 0.200045 0.445686
vt 0.418922 0.489798
vt 0.751271 0.741359
vt 0.719498 0.829528
vt 0.053299 0.379346
vt 0.129971 0.646882
vt 0.026547 0.229193
vt 0.172637 0.539949
vt 0.102647 0.507398
vt 0.121403 0.545297
vt 0.016426 0.279833
vt 0.096391 0.280503
vt 0.137418 0.678245
vt 0.099750 0.199081
vt 0.150051 0.619478
vt 0.718503 0.549477
vt 0.105104 0.750785
vt 0.125673 0.467141
vt 0.176476 0.151975
vt 0.169588 0.701277
vt 0.806702 0.517652
vt 0.138526 0.700490
vt 0.191605 0.187653
vt 0.311690 0.234880
vt 0.719237 0.893686
vt 0.474955 0.477432
vt 0.559925 0.991392
vt 0.233937 0.392226
vt 0.748493 0.621284
vt 0.206436 0.477430
vt 0.530263 0.837242
vt 0.489400 0.330961
vt 0.322259 0.013012
vt 0.313646 0.657958
vt 0.316612 0.710329
vt 0.302898 0.614406
vt 0.257798 0.067171
vt 0.502520 0.697061
vt 0.436271 0.169822
vt 0.423055 0.055818
vt 0.333351 0.727440
vt 0.515548 0.554443
vt 0.469833 0.131011
vt 0.516702 0.649151
vt 0.195901 0.080796
vt 0.339794 0.515621
vt 0.767658 0.531376
vt 0.243300 0.024003
vt 0.350124 0.594520
vt 0.365558 0.069065
vt 0.560510 0.725350
vt 0.407689 0.305656
vt 0.693090 0.902754
vt 0.582251 0.978342
vt 0.969284 0.487805
vt 0.431577 0.415271
s 1
usemtl Heart
f 1/1/1 26/46/2 3/5/3
f 3/5/3 4/6/4 5/7/5
f 5/7/5 13/21/6 6/9/7
f 4/6/4 16/26/8 11/18/9
f 6/9/7 3/5/3 5/7/5
f 25/43/10 8/12/11 16/27/8
f 4/6/4 25/44/10 16/26/8
f 25/44/10 4/6/4 21/36/12
f 31/54/13 1/2/1 10/16/14
f 9/14/15 3/5/3 26/46/2
f 1/1/1 3/5/3 6/9/7
f 12/20/16 14/24/17 13/23/6
f 16/27/8 15/25/18 11/17/9
f 7/11/19 6/10/7 13/22/6
f 26/46/2 1/1/1 31/55/13
f 17/29/20 24/42/21 27/47/22
f 18/32/23 19/33/24 20/35/25
f 26/46/2 17/29/20 27/47/22
f 27/47/22 21/36/12 9/14/15
f 20/35/25 21/36/12 27/47/22
f 19/33/24 23/40/26 20/35/25
f 55/108/27 29/50/28 24/41/21
f 17/28/20 55/108/27 24/41/21
f 20/35/25 27/47/22 24/42/21
f 55/108/27 17/28/20 57/111/29
f 28/48/30 19/34/24 18/30/23
f 18/31/23 29/50/28 28/49/30
f 29/50/28 18/31/23 22/37/31
f 19/34/24 30/53/32 23/39/26
f 30/53/32 19/34/24 53/106/33
f 8/13/11 30/52/32 52/104/34
f 17/29/20 31/56/13 57/112/29
f 17/29/20 26/46/2 31/56/13
f 12/20/16 36/67/35 34/63/36
f 34/62/36 32/58/37 39/75/38
f 36/68/35 35/64/39 38/71/40
f 44/85/41 34/62/36 37/69/42
f 37/69/42 38/71/40 41/80/43
f 38/70/40 40/77/44 41/79/43
f 37/69/42 41/80/43 42/81/45
f 10/16/14 43/82/46 57/110/29
f 33/61/47 43/82/46 10/16/14
f 34/62/36 44/85/41 32/58/37
f 2/4/48 36/67/35 12/20/16
f 2/4/48 35/66/39 36/67/35
f 14/24/17 12/20/16 34/63/36
f 15/25/18 35/65/39 11/17/9
f 35/65/39 15/25/18 38/72/40
f 33/59/47 58/113/49 43/83/46
f 50/97/50 54/107/51 47/90/52
f 47/90/52 54/107/51 48/94/53
f 47/91/52 48/93/53 53/106/33
f 56/109/54 46/89/55 58/113/49
f 48/94/53 54/107/51 42/81/45
f 50/97/50 49/96/56 54/107/51
f 46/88/55 51/101/57 55/108/27
f 55/108/27 51/101/57 29/50/28
f 41/80/43 40/76/44 52/102/34
f 42/81/45 56/109/54 44/85/41
f 42/81/45 49/96/56 56/109/54
f 46/88/55 55/108/27 57/111/29
f 28/48/30 47/91/52 53/106/33
f 51/101/57 46/88/55 49/95/56
f 58/113/49 46/89/55 43/83/46
f 20/35/25 22/38/31 18/32/23
f 28/48/30 53/106/33 19/34/24
f 24/41/21 29/50/28 22/37/31
f 37/69/42 34/62/36 36/68/35
f 44/85/41 58/113/49 32/58/37
f 44/85/41 37/69/42 42/81/45
f 37/69/42 36/68/35 38/71/40
f 58/113/49 44/85/41 56/109/54
f 38/72/40 15/25/18 40/77/44
f 33/59/47 32/58/37 58/113/49
f 42/81/45 54/107/51 49/96/56
f 50/97/50 51/100/57 49/96/56
f 41/80/43 48/94/53 42/81/45
f 46/88/55 57/111/29 43/84/46
f 49/96/56 46/89/55 56/109/54
f 47/92/52 28/48/30 50/98/50
f 50/99/50 28/49/30 29/50/28
f 50/99/50 29/50/28 51/101/57
f 53/105/33 48/94/53 52/102/34
f 5/7/5 11/18/9 2/3/48
f 11/18/9 5/7/5 4/6/4
f 39/73/38 7/11/19 13/22/6
f 21/36/12 3/5/3 9/14/15
f 3/5/3 21/36/12 4/6/4
f 10/15/14 57/112/29 31/56/13
f 10/16/14 1/2/1 7/11/19
f 10/16/14 7/11/19 33/61/47
f 12/20/16 5/8/5 2/4/48
f 5/8/5 12/20/16 13/23/6
f 39/74/38 13/23/6 14/24/17
f 7/11/19 1/2/1 6/10/7
f 8/12/11 15/25/18 16/27/8
f 21/36/12 20/35/25 23/40/26
f 22/38/31 20/35/25 24/42/21
f 23/40/26 30/51/32 25/44/10
f 9/14/15 26/46/2 27/47/22
f 25/44/10 21/36/12 23/40/26
f 8/13/11 25/45/10 30/52/32
f 45/86/58 32/57/37 33/60/47
f 39/73/38 45/86/58 7/11/19
f 7/11/19 45/86/58 33/61/47
f 2/4/48 11/19/9 35/66/39
f 39/74/38 14/24/17 34/63/36
f 39/75/38 32/58/37 45/87/58
f 40/77/44 15/25/18 8/12/11
f 48/94/53 41/80/43 52/102/34
f 53/106/33 52/103/34 30/53/32
f 8/13/11 52/104/34 40/78/44
