#
#
#

mtllib sea.mtl


#
#  Mesh
#
g  Mesh


#
#  Mesh_court
#
usemtl  Mesh_court

v -10.000000 -1.000000 8.000000
v 10.000000 -1.000000 8.000000
v -10.000000 -1.000000 -8.000000
v 10.000000 -1.000000 -8.000000
v -10.000000 -2.000000 8.000000
v -10.000000 -2.000000 -8.000000
v 10.000000 -2.000000 8.000000
v 10.000000 -2.000000 -8.000000
vn 0.000000 1.000000 0.000000
vn 0.000000 -1.000000 0.000000
vn 0.000000 0.000000 1.000000
vn 0.000000 0.000000 -1.000000
vn -1.000000 0.000000 0.000000
vn 1.000000 0.000000 0.000000
vt 0.000000 0.000000
vt 1.000000 0.000000
vt 0.000000 1.000000
vt 1.000000 1.000000
vt 0.000000 0.200000
vt 1.000000 0.200000
f 1/1/1 2/2/1 3/3/1
f 2/2/1 4/4/1 3/3/1
f 5/1/2 6/3/2 7/2/2
f 7/2/2 6/3/2 8/4/2
f 5/1/3 7/2/3 1/5/3
f 7/2/3 2/6/3 1/5/3
f 6/2/4 3/6/4 8/1/4
f 8/1/4 3/6/4 4/5/4
f 6/1/5 5/2/5 3/5/5
f 5/2/5 1/6/5 3/5/5
f 7/1/6 8/2/6 2/5/6
f 8/2/6 4/6/6 2/5/6
