#
#
#

mtllib sea.mtl


#
#  Mesh
#
g  Mesh


#
#  Mesh_court
#
usemtl  Mesh_court

v 1.000000 -1.000000 -1.000000
v 1.000000 -1.000000 1.000000
v -1.000000 -1.000000 1.000000
v -1.000000 -1.000000 -1.000000
v 1.000000 1.000000 -1.000000
v 1.000000 1.000000 1.000000
v -1.000000 1.000000 1.000000
v -1.000000 1.000000 -1.000000

vn -1.000000 1.000000 1.000000
vn -1.000000 1.000000 -1.000000
vn 1.000000 1.000000 -1.000000
vn 1.000000 1.000000 1.000000
vn -1.000000 -1.000000 1.000000
vn -1.000000 -1.000000 -1.000000
vn 1.000000 -1.000000 -1.000000
vn 1.000000 -1.000000 1.000000

vt 0.250000 1.000000
vt 0.500000 1.000000
vt 0.000000 0.666667
vt 0.250000 0.666667
vt 0.500000 0.666667
vt 0.750000 0.666667
vt 1.000000 0.666667
vt 0.000000 0.333333
vt 0.250000 0.333333
vt 0.500000 0.333333
vt 0.750000 0.333333
vt 1.000000 0.333333
vt 0.250000 0.000000
vt 0.500000 0.000000

f 7/1/7 8/4/8 6/2/6
f 6/2/6 8/4/8 5/5/5
f 7/3/7 3/8/3 8/4/8
f 8/4/8 3/8/3 4/9/4
f 8/4/8 4/9/4 5/5/5
f 5/5/5 4/9/4 1/10/1
f 5/5/5 1/10/1 6/6/6
f 6/6/6 1/10/1 2/11/2
f 6/6/6 2/11/2 7/7/7
f 7/7/7 2/11/2 3/12/3
f 4/9/4 3/13/3 1/10/1
f 1/10/1 3/13/3 2/14/2
